# xmcd
#
# Track frame offsets: 
#        182
#        8937
#        24280
#        32752
#        40982
#        48117
#        61060
#        71095
#        82402
#        95347
#
# Disc length: 1390 seconds
#
# Revision: 0
# Processed by: cddbd v1.5.2PL0 Copyright (c) Steve Scherf et al.
# Submitted via: ExactAudioCopy v0.99pb3
#
DISCID=7a056c0a
DTITLE=Martina, Dina - The Dina Martina Holiday Album
DYEAR=1999
DGENRE=Christmas/Holiday
TTITLE0=Santa Claus (Live)
TTITLE1=Christmas
TTITLE2=Fun In The Snow (Phoebe)
TTITLE3=Angels We Have Heard On High
TTITLE4=Away In The Manger
TTITLE5=New Year's Eve Song
TTITLE6=The President's Day Song
TTITLE7=The Ballad Of St. Patrick
TTITLE8=My Country Valentine
TTITLE9=Dina Martina Christmas Special Theme
EXTD=
EXTT0=
EXTT1=
EXTT2=
EXTT3=
EXTT4=
EXTT5=
EXTT6=
EXTT7=
EXTT8=
EXTT9=
PLAYORDER=
